<svg
  version="1.1"
  xmlns="http://www.w3.org/2000/svg"
  xmlns:xlink="http://www.w3.org/1999/xlink"
  x="0px"
  y="0px"
  viewBox="0 0 30.9 30.9"
  style="enable-background:new 0 0 30.9 30.9;"
  xml:space="preserve"
>
<g>
  <path
    style="fill-rule:evenodd;clip-rule:evenodd;fill:#ffd200;"
    d="M15.45,0C23.983,0,30.9,6.917,30.9,15.45
      c0,8.533-6.917,15.45-15.45,15.45C6.917,30.9,0,23.983,0,15.45C0,6.917,6.917,0,15.45,0L15.45,0z M18.406,16.769L16.368,20.3
      c-0.09,0.155-0.22,0.29-0.386,0.386c-0.507,0.293-1.156,0.12-1.449-0.386l-2.038-3.531v-0.004l-1.987-3.441
      c-0.124-0.174-0.197-0.387-0.197-0.617c0-0.587,0.476-1.063,1.063-1.063h4.077h4.076v0.005c0.179,0,0.361,0.045,0.527,0.141
      c0.507,0.291,0.681,0.938,0.39,1.445l-2.006,3.475C18.428,16.73,18.418,16.749,18.406,16.769L18.406,16.769z"
    />
</g>
</svg>
