<svg
  version="1.1"
  xmlns="http://www.w3.org/2000/svg"
  xmlns:xlink="http://www.w3.org/1999/xlink"
  x="0px"
  y="0px"
  viewBox="0 0 32.44 32.39"
  style="enable-background:new 0 0 32.44 32.39;" xml:space="preserve"
>
<g>
  <path
    style="fill-rule:evenodd;clip-rule:evenodd;fill:#FFD200;"
    d="M7.534,20.714L5.821,31.213
    c-0.062,0.383,0.099,0.768,0.417,0.992c0.317,0.223,0.734,0.247,1.075,0.058l8.908-4.923l8.908,4.925
    c0.154,0.084,0.323,0.126,0.49,0.126c0.205,0,0.41-0.062,0.584-0.185c0.318-0.224,0.478-0.609,0.416-0.992l-1.713-10.498
    l7.245-7.426c0.265-0.272,0.357-0.67,0.237-1.03c-0.12-0.361-0.432-0.622-0.808-0.68l-9.973-1.523l-4.47-9.522
    c-0.334-0.711-1.5-0.711-1.834,0l-4.469,9.522l-9.973,1.523c-0.376,0.058-0.688,0.319-0.808,0.68
    c-0.12,0.361-0.03,0.759,0.235,1.03L7.534,20.714L7.534,20.714z"
  />
</g>
</svg>
