<svg
  version="1.1"
  xmlns="http://www.w3.org/2000/svg"
  xmlns:xlink="http://www.w3.org/1999/xlink"
  x="0px"
  y="0px"
  viewBox="0 0 40 40"
  style="enable-background:new 0 0 40 40;"
  xml:space="preserve"
>
<g>
  <path style="fill-rule:evenodd;clip-rule:evenodd;fill:#fff;" d="M19.971,2.083c-3.103,0-6.166,0.814-8.926,2.407
    c-4.143,2.392-7.106,6.254-8.344,10.875c-1.238,4.621-0.603,9.447,1.789,13.59c2.392,4.143,6.254,7.106,10.875,8.344
    c4.621,1.238,9.447,0.603,13.59-1.789c4.143-2.392,7.106-6.254,8.345-10.875c1.238-4.621,0.603-9.447-1.789-13.59
    c-2.392-4.143-6.254-7.106-10.875-8.344C23.093,2.287,21.526,2.083,19.971,2.083L19.971,2.083z M20.033,40
    c-1.737,0-3.484-0.228-5.207-0.69c-5.158-1.382-9.469-4.69-12.139-9.314c-2.67-4.624-3.379-10.012-1.997-15.17
    c1.382-5.158,4.69-9.469,9.314-12.139l0.52,0.901l-0.52-0.901c4.625-2.67,10.012-3.379,15.17-1.997
    c5.158,1.382,9.469,4.69,12.139,9.314c2.67,4.625,3.379,10.012,1.997,15.17c-1.382,5.158-4.69,9.469-9.314,12.139
    C26.915,39.092,23.496,40,20.033,40L20.033,40z"/>
  <path style="fill-rule:evenodd;clip-rule:evenodd;fill:#fff;" d="M15.65,12.481c-0.014,0-0.03,0.004-0.049,0.015
    c-0.048,0.028-0.048,0.066-0.048,0.084v14.842c0,0.018,0,0.056,0.048,0.084c0.048,0.028,0.081,0.009,0.097,0l12.854-7.421
    c0.016-0.009,0.048-0.028,0.048-0.084c0-0.056-0.033-0.075-0.048-0.084l-12.854-7.421C15.688,12.49,15.672,12.481,15.65,12.481
    L15.65,12.481z M15.649,29.603c-0.374,0-0.748-0.098-1.089-0.295c-0.682-0.394-1.089-1.099-1.089-1.887V12.579
    c0-0.788,0.407-1.493,1.089-1.887c0.682-0.394,1.496-0.394,2.179,0l12.854,7.421c0.682,0.394,1.089,1.099,1.089,1.887
    c0,0.788-0.407,1.493-1.089,1.887l-12.854,7.421C16.397,29.505,16.023,29.603,15.649,29.603L15.649,29.603z"/>
</g>
</svg>
