<svg
  version="1.1"
  xmlns="http://www.w3.org/2000/svg"
  xmlns:xlink="http://www.w3.org/1999/xlink"
  x="0px"
  y="0px"
  viewBox="0 0 33.026 33.026"
  style="enable-background:new 0 0 33.026 33.026;"
  xml:space="preserve"
>
<g>
  <path
    style="fill:none;stroke:#666666;stroke-width:2.126;stroke-linecap:round;stroke-linejoin:round;stroke-miterlimit:22.9256;"
    d="M16.513,1.063c8.533,0,15.45,6.917,15.45,15.45c0,8.533-6.917,15.45-15.45,15.45s-15.45-6.917-15.45-15.45
      C1.063,7.98,7.98,1.063,16.513,1.063L16.513,1.063z M16.513,7.704c2.875,0,5.205,2.33,5.205,5.205c0,2.875-2.33,5.205-5.205,5.205
      s-5.205-2.33-5.205-5.205C11.308,10.034,13.638,7.704,16.513,7.704L16.513,7.704z M5.799,27.388
      c0.778-5.318,5.339-9.261,10.714-9.261c5.416,0,9.999,4.002,10.729,9.368"/>
</g>
</svg>
