<svg
        version="1.1"
        xmlns="http://www.w3.org/2000/svg"
        xmlns:xlink="http://www.w3.org/1999/xlink"
        x="0px"
        y="0px"
        viewBox="0 0 130.058 130.425"
        style="enable-background:new 0 0 130.058 130.425;"
        xml:space="preserve"
>
<symbol id="quiz-logo" viewBox="0 0 130.058 130.425">
  <path style="fill-rule:evenodd;clip-rule:evenodd;" d="M72.028,121.739c0.781,0.704,1.259,1.706,1.259,2.961
    c0,1.212-0.469,2.259-1.244,3.006c-0.781,0.752-1.869,1.197-3.097,1.197c-1.25,0-2.35-0.427-3.134-1.173
    c-0.773-0.734-1.238-1.77-1.238-3.003c0-1.205,0.443-2.233,1.194-2.963c0.752-0.732,1.808-1.156,3.03-1.156
    C70.065,120.607,71.212,121.003,72.028,121.739L72.028,121.739z M117.461,37.116l-4.077,1.109l-0.318,0.087l-0.203-0.264
    l-3.987-5.206l-0.363-0.474l0.537-0.266l5.209-2.571l0.466-0.229l0.205,0.478l2.854,6.668l0.223,0.521L117.461,37.116
    L117.461,37.116z M53.902,10.301l5.113,27.127l0.089,0.467l-0.466,0.103l-5.689,1.265l-0.471,0.105l-0.113-0.471l-2.177-9.107
    c-0.685,0.799-1.534,1.41-2.47,1.842c-1.375,0.635-2.946,0.888-4.471,0.797c-6.017-0.414-7.401-6.436-8.532-11.37
    c-0.177-0.768-0.348-1.512-0.527-2.191l-0.129-0.489l0.493-0.116l5.605-1.315l0.481-0.112l0.11,0.484l1.259,5.527
    c0.36,1.585,1.419,2.433,2.57,2.658c0.454,0.089,0.924,0.083,1.369-0.009c0.443-0.091,0.866-0.272,1.232-0.531
    c0.881-0.621,1.423-1.729,1.113-3.225l-1.958-9.417l-0.093-0.45l0.444-0.123l6.604-1.831l0.516-0.143L53.902,10.301L53.902,10.301z
     M87.268,102.298l-2.317,17.685l-0.054,0.412l-0.416,0.015l-4.613,0.176l-0.487,0.019l-0.022-0.489l-0.831-18.233l-0.024-0.538
    l0.538,0.026l7.761,0.371l0.535,0.026L87.268,102.298L87.268,102.298z M62.386,107.261c-0.567,0.658-0.91,1.582-0.921,2.593
    l-0.005,0.537l-0.532-0.052l-4.495-0.436l-0.386-0.037l-0.056-0.383c-0.062-0.425-0.093-0.856-0.095-1.282
    c-0.008-2.386,0.921-4.565,2.436-6.228c1.512-1.659,3.609-2.811,5.936-3.148c0.443-0.065,0.905-0.099,1.375-0.101
    c3.063-0.018,5.694,1.412,7.469,3.506c1.058,1.247,1.815,2.734,2.179,4.289c0.366,1.564,0.336,3.204-0.181,4.751
    c-0.727,2.178-2.416,4.159-5.31,5.468l0.114,1.698l0.028,0.404l-0.392,0.105l-3.716,1.003l-0.389,0.105l-0.179-0.366l-3.19-6.5
    l-0.325-0.662l0.737-0.045c1.169-0.07,2.695-0.441,3.753-1.213c0.727-0.532,1.226-1.263,1.189-2.223
    c-0.031-0.819-0.353-1.516-0.867-2.006c-0.519-0.495-1.243-0.785-2.067-0.785C63.654,106.256,62.918,106.642,62.386,107.261
    L62.386,107.261z M109.23,72.238l1.55-7.066l0.112-0.505l0.497,0.133l5.558,1.497l0.585,0.158l-0.273,0.54l-2.966,5.864
    l-0.148,0.293l-0.326-0.024l-4.142-0.294l-0.568-0.04L109.23,72.238L109.23,72.238z M23.428,55.927l-5.353,0.663l-0.413,0.052
    l-0.119-0.402c-0.602-2.03-1.97-3.216-3.531-3.662c-0.835-0.239-1.729-0.271-2.591-0.112c-0.862,0.159-1.697,0.513-2.413,1.04
    c-1.394,1.026-2.343,2.732-2.197,4.989c0.085,1.295,0.571,2.373,1.294,3.192c0.712,0.808,1.659,1.372,2.683,1.652
    c1.025,0.281,2.131,0.279,3.159-0.042c1.058-0.331,2.04-1.003,2.773-2.055l0.245-0.35l0.381,0.192l4.837,2.437l0.431,0.217
    l-0.207,0.434c-0.898,1.885-2.265,3.365-3.921,4.4c-1.716,1.074-3.744,1.668-5.877,1.74c-3.533,0.12-6.578-0.961-8.794-2.942
    c-2.216-1.983-3.595-4.861-3.792-8.328c-0.2-3.481,0.855-6.71,2.872-9.138c1.954-2.354,4.812-3.953,8.304-4.3
    c3.168-0.315,6.153,0.559,8.439,2.321c2.239,1.726,3.806,4.305,4.217,7.45l0.065,0.492L23.428,55.927L23.428,55.927z
     M37.417,49.139l-1.726,8.064l3.797-0.048L37.417,49.139L37.417,49.139z M62.801,55.132l3.533-16.621l0.077-0.361l0.367-0.028
    l6.281-0.475l0.47-0.035l0.056,0.469l3.25,27.048l0.057,0.476l-0.477,0.069l-5.705,0.831l-0.477,0.07l-0.078-0.48l-1.295-8.013
    l-1.764,6.442l-0.088,0.326l-0.335,0.034l-4.784,0.494l-0.275,0.029l-0.168-0.223l-4.583-6.102l1.564,9.687l0.087,0.539
    l-0.547,0.029l-5.633,0.305l-0.462,0.025l-0.052-0.463l-2.819-25.193l-0.058-0.518l0.522-0.027l6.303-0.335l0.306-0.016
    l0.149,0.266L62.801,55.132L62.801,55.132z M95.632,57.827c0.283,0.737,0.473,1.522,0.552,2.336
    c0.196,2.032-0.207,3.764-1.024,5.188c-0.827,1.441-2.077,2.565-3.557,3.368c-1.46,0.792-3.154,1.274-4.892,1.442
    c-2.726,0.264-5.572-0.245-7.81-1.529l-0.225-0.13l-0.021-0.259l-2.143-27.297l-0.037-0.48l0.482-0.048l5.685-0.556l0.497-0.049
    l0.04,0.499l0.959,11.74c0.565-0.171,1.136-0.282,1.703-0.336c2.094-0.202,4.17,0.352,5.906,1.443
    C93.482,54.249,94.884,55.879,95.632,57.827L95.632,57.827z M119.789,50.984l-7.094,11.096l-0.128,0.202l-0.24,0.023l-5.616,0.549
    l-0.484,0.048l-0.051-0.487l-2.336-22.406l-0.052-0.5l0.502-0.041l6.2-0.495l0.496-0.039l0.034,0.497l0.696,10.025l7.119-11.109
    l0.123-0.192l0.227-0.03l6.098-0.793l0.47-0.061l0.079,0.465l4.133,24.047l0.093,0.538l-0.545,0.036l-6.419,0.433l-0.411,0.028
    l-0.099-0.404L119.789,50.984L119.789,50.984z M48.163,91.466l-2.83,9.264l-0.096,0.313l-0.324,0.033l-4.734,0.49l-0.361,0.038
    l-0.142-0.336l-3.643-8.658l-0.628,12.343l-0.025,0.506l-0.505-0.04l-5.511-0.434l-0.48-0.038l0.028-0.48l1.492-25.689l0.026-0.44
    l0.44-0.024l6.322-0.337l0.359-0.018l0.127,0.336l4.266,11.267l3.316-16.489l0.074-0.367l0.37-0.029l6.284-0.474l0.46-0.034
    l0.065,0.457l3.529,24.928l0.058,0.413l-0.397,0.125l-5.612,1.771l-0.542,0.172l-0.092-0.565L48.163,91.466L48.163,91.466z
     M63.808,90.693l0.401,4.11l0.048,0.487l-0.49,0.048l-5.628,0.549l-0.487,0.048l-0.048-0.49l-2.172-22.245l-0.047-0.487l0.49-0.049
    l5.628-0.549l0.487-0.047l0.048,0.49l1.125,11.527l5.857-0.399l-1.502-13.687l-0.053-0.484l0.486-0.058l5.615-0.659l0.492-0.058
    l0.053,0.494l2.815,26.195l0.054,0.496l-0.498,0.045l-5.629,0.522l-0.481,0.045l-0.052-0.482L69.7,90.319L63.808,90.693
    L63.808,90.693z M111.995,74.895l0.685,9.842l6.66-15.648l0.11-0.258l0.279-0.037l6.036-0.785l0.511-0.066l0.044,0.513
    l1.949,22.703l0.043,0.499l-0.501,0.033l-6.393,0.43l-0.491,0.033l-0.033-0.493l-0.645-9.717l-6.575,15.532l-0.114,0.269
    l-0.292,0.029l-5.581,0.545l-0.484,0.048l-0.051-0.487l-2.335-22.406l-0.052-0.501l0.502-0.041l6.199-0.495l0.495-0.039
    L111.995,74.895L111.995,74.895z M74.946,23.789l-8.073,1.182l0.349,2.434l9.679-1.129l0.497-0.058l0.048,0.501l0.593,6.064
    l0.048,0.487l-0.491,0.048l-16.205,1.583l-0.472,0.046l-0.062-0.474l-3.034-23.4l-0.062-0.485l0.486-0.064l16.157-2.102
    l0.471-0.061l0.078,0.468l0.969,5.805l0.086,0.51l-0.514,0.059l-9.943,1.154l0.346,2.396l8.154-1.069l0.481-0.062l0.07,0.478
    l0.758,5.13l0.072,0.488L74.946,23.789L74.946,23.789z M82.618,32.046c-0.311-0.589-0.499-1.237-0.499-1.973
    c0-0.968,0.353-1.752,0.94-2.304c0.606-0.571,1.456-0.883,2.417-0.883l0.096,0.002c0.977,0.023,1.845,0.378,2.473,0.975
    c0.636,0.604,1.025,1.452,1.025,2.452l-0.002,0.086c-0.023,0.959-0.741,2.243-1.598,3.451c-0.831,1.17-1.78,2.268-2.337,2.907
    l-0.212,0.244l-0.31-0.099l-1.488-0.477l-0.471-0.15l0.153-0.47l0.787-2.423C83.211,32.969,82.874,32.53,82.618,32.046
    L82.618,32.046z M73.08,4.376v0.042c-0.018,1.188-0.554,2.077-1.296,2.607c-0.398,0.285-0.859,0.467-1.328,0.532
    c-0.474,0.067-0.963,0.018-1.415-0.152c-0.796-0.301-1.479-0.977-1.781-2.072c-0.086-0.311-0.128-0.619-0.128-0.912
    c0.001-0.659,0.202-1.278,0.568-1.775c0.369-0.501,0.903-0.882,1.567-1.066c0.287-0.079,0.595-0.123,0.919-0.123h0.042
    c0.875,0.013,1.586,0.327,2.083,0.851C72.805,2.829,73.08,3.549,73.08,4.376L73.08,4.376z M66.13,4.045
    c0,0.235-0.021,0.477-0.062,0.72c-0.076,0.452-0.229,0.855-0.437,1.202c-0.394,0.655-0.99,1.117-1.677,1.38
    c-0.667,0.258-1.424,0.324-2.162,0.199c-0.524-0.089-1.04-0.275-1.51-0.557c-0.877-0.527-1.422-1.324-1.658-2.191
    C58.44,4.13,58.445,3.415,58.621,2.75c0.178-0.668,0.533-1.292,1.051-1.776C60.308,0.382,61.179,0,62.258,0
    c0.223,0,0.445,0.019,0.661,0.055c0.98,0.166,1.787,0.695,2.346,1.418C65.818,2.19,66.13,3.102,66.13,4.045L66.13,4.045z
     M85.651,122.978c0.73,0.79,1.128,1.877,1.09,3.113c-0.038,1.231-0.504,2.332-1.287,3.116c-0.759,0.762-1.813,1.222-3.058,1.218
    c-1.13-0.004-2.149-0.345-2.934-0.971c-0.767-0.611-1.309-1.492-1.511-2.595c-0.071-0.387-0.096-0.765-0.079-1.128
    c0.048-1.016,0.425-1.924,1.047-2.624c0.622-0.698,1.485-1.19,2.505-1.378c0.384-0.071,0.79-0.099,1.214-0.079
    C83.892,121.709,84.931,122.197,85.651,122.978L85.651,122.978z M40.62,37.513l9.108,29.912l0.15,0.494l-0.498,0.126l-5.776,1.472
    l-0.43,0.11l-0.154-0.416l-1.681-4.532l-7.961-0.073l-2.273,6.144l-0.161,0.438l-0.446-0.137l-5.679-1.742l-0.468-0.143
    l0.143-0.469l9.384-30.673l0.099-0.32l0.329-0.029l5.802-0.51l0.396-0.035L40.62,37.513L40.62,37.513z M97.611,62.103L95.24,41.256
    l-0.053-0.47l0.471-0.071l5.183-0.776l0.496-0.074l0.063,0.5l2.714,21.355l0.068,0.528l-0.532,0.025l-5.526,0.267l-0.46,0.022
    L97.611,62.103L97.611,62.103z M84.944,58.626c-0.561,0.383-0.938,1.092-0.918,2.194c0.016,0.789,0.278,1.642,0.772,2.249
    c0.387,0.476,0.927,0.799,1.606,0.796c0.324,0,0.644-0.038,0.949-0.109c0.659-0.154,1.236-0.472,1.641-0.912
    c0.392-0.425,0.631-0.974,0.632-1.606c-0.001-0.213-0.028-0.437-0.082-0.669c-0.24-1.034-1.117-1.796-2.108-2.134
    c-0.442-0.151-0.908-0.217-1.348-0.185C85.667,58.281,85.27,58.403,84.944,58.626L84.944,58.626z M18.752,87.319l3.531-12.116
    l0.096-0.329l0.341-0.026l6.476-0.479l0.715-0.052l-0.21,0.686l-7.174,23.455c-0.776,2.541-2.267,4.126-4.208,4.929
    c-2.112,0.874-4.742,0.799-7.542,0.016l-0.446-0.125l0.1-0.455c0.193-0.869,0.397-1.758,0.614-2.666
    c0.223-0.929,0.447-1.824,0.669-2.657l0.128-0.476l0.475,0.127c0.819,0.219,1.691,0.422,2.457,0.367
    c0.607-0.044,1.166-0.261,1.594-0.789l-9.685-16.26l-0.291-0.49l0.526-0.217l5.757-2.372l0.404-0.166l0.213,0.379L18.752,87.319
    L18.752,87.319z M77.671,73.649l5.686-0.557l0.503-0.048l0.035,0.504l0.356,5.073c0.826-0.196,1.666-0.292,2.5-0.292
    c2.042,0,4.044,0.574,5.679,1.629c1.652,1.066,2.934,2.621,3.519,4.573c0.224,0.748,0.346,1.554,0.346,2.41
    c0,1.901-0.416,3.527-1.137,4.881c-0.905,1.699-2.289,2.962-3.938,3.797c-1.632,0.827-3.523,1.235-5.462,1.235
    c-2.285,0-4.647-0.567-6.735-1.68l-0.24-0.128l-0.02-0.269l-1.535-20.602l-0.035-0.479L77.671,73.649L77.671,73.649z
     M97.707,97.704l-1.296-29.57l-0.019-0.444l0.439-0.065l5.812-0.852l0.557-0.081l0.006,0.562l0.359,30.187l0.006,0.475
    l-0.474,0.022l-4.875,0.236l-0.492,0.024L97.707,97.704L97.707,97.704z M85.955,84.826c-0.817,0.381-1.449,1.286-1.469,2.804
    c-0.018,1.355,0.545,2.149,1.301,2.483c0.331,0.146,0.704,0.211,1.081,0.202c0.388-0.009,0.785-0.098,1.155-0.254
    c0.976-0.414,1.768-1.314,1.758-2.546c-0.011-1.322-0.736-2.243-1.647-2.658c-0.35-0.16-0.732-0.247-1.106-0.252
    C86.656,84.599,86.287,84.671,85.955,84.826L85.955,84.826z"></path>
</symbol>
</svg>
