<svg
        version="1.1"
        xmlns="http://www.w3.org/2000/svg"
        xmlns:xlink="http://www.w3.org/1999/xlink"
        x="0px"
        y="0px"
        viewBox="0 0 110.15 99.711"
        style="enable-background:new 0 0 110.15 99.711;"
        xml:space="preserve"
>
<symbol id="school-quiz-logo" viewBox="0 0 110.15 99.711">
	<path d="M11.211,8.797c4.873-0.033,7.331,1.924,9.196,4.631c0.509,0.739-3.172,3.705-3.853,3.072
		c-1.161-1.612-2.424-2.558-4.837-2.542c-7.444,0.051-7.738,14.984-0.763,15.081c2.042,0.028,4.133-1.011,5.618-2.164
		c0.821-0.484,3.652,3.963,2.932,4.513c-2.538,1.938-4.761,3.193-8.548,3.219C-4.457,34.713-2.905,8.664,11.211,8.797L11.211,8.797z
		 M107.82,68.4c-0.365,0.052-0.478-0.264-0.218-0.537c0.095-0.1,0.312-0.463,0.345-0.708c0.039-0.288-0.18-0.43-0.573-0.384
		c-3.715,0.429-3.289-5.102,0.162-5.01c3.121,0.082,3.226,4.02,1.482,5.916C108.641,68.086,108.218,68.343,107.82,68.4L107.82,68.4z
		 M82.488,76.768c2.306,5.892-2.619,8.749-7.121,10.828c-0.189,0.087-0.228,0.16-0.082,0.306c1.661,1.655,4.675,1.101,6.34-0.424
		c0.452-0.414,2.816,3.395,2.397,3.78c-1.788,1.644-4.301,2.29-6.169,2.415c-3.805,0.255-6.734-2.057-8.196-5.383
		c0.363,3.506,0.714,6.994,0.984,9.929c0.061,0.66-4.952,1.182-5.044,0.558c-0.358-2.445-1.948-21.881-2.156-23.4
		c-0.634-0.145-2.15,0.042-2.683,0.325c1.912,16.035-2.705,22.139-7.636,24.004c-0.458,0.173-3.184-4.39-2.68-4.679
		c6.488-3.726,5.37-17.448,3.946-22.867c-0.508-1.933,13.338-3.28,13.427-1.849c0.071,1.142,0.486,5.08,0.999,9.943
		c0.47-2.77,1.809-5.306,4.637-6.64C76.836,72.018,80.925,72.773,82.488,76.768L82.488,76.768z M74.381,78.283
		c-0.822,1.072-1.539,3.445-1.06,5.002c3.009-1.092,5.676-2.903,5.554-4.242C78.63,76.353,75.675,76.597,74.381,78.283
		L74.381,78.283z M85.656,7.774c3.055-0.543,5.786-0.217,8.025,0.932c0.285,0.146,0.506,0.103,0.669-0.129
		c0.58-0.825,1.976-3.372,1.327-3.701c-3.457-1.755-6.699-2.104-10.857-1.616c-0.494,0.058-0.809,0.352-0.773,0.863
		c0.067,0.952,0.402,2.511,0.683,3.285C84.964,8.049,85.124,7.868,85.656,7.774L85.656,7.774z M60.806,2.713
		c0.018-0.786,4.553-0.811,4.57,0.09c0.044,2.24,0.403,8.903,0.713,10.653c3.921-4.417,9.79-3.728,10.368,2.993
		c0.56,6.506-3.794,13.252-12.461,11.897c-0.457-0.072-0.848-0.43-0.961-0.798C62.038,24.317,60.678,8.278,60.806,2.713
		L60.806,2.713z M69.537,16.091c-1.883,1.639-2.947,4.861-2.423,7.59c1.778-0.505,5.006-1.665,5.541-5.742
		C72.945,15.734,70.974,14.841,69.537,16.091L69.537,16.091z M85.031,34.727c3.109,0.168,5.766-0.485,7.809-1.894
		c0.259-0.179,0.486-0.164,0.683,0.047c0.7,0.747,2.472,3.102,1.88,3.506c-3.157,2.157-6.315,2.894-10.509,2.913
		c-0.499,0.002-0.855-0.251-0.898-0.762c-0.079-0.951,0.015-2.536,0.175-3.337C84.303,34.538,84.489,34.698,85.031,34.727
		L85.031,34.727z M42.52,74.028c0.45-0.4,0.878-0.61,1.218-0.48c0.875,0.334,2.7,0.79,4.181,0.512
		c6.33-1.191,8.857,20.163-3.957,20.39c-5.438,0.096-6.434-6.063-5.884-10.172C38.59,80.45,40.138,76.149,42.52,74.028L42.52,74.028
		z M45.016,78.423c-1.47,2.322-3.348,8.338-1.352,11.373c4.065-1.127,4.905-7.849,3.529-11.14
		C46.681,77.432,45.715,77.319,45.016,78.423L45.016,78.423z M76.88,4.26c-0.121-0.892,4.485-1.259,4.628-0.455
		c1.042,5.879,2.146,19.565,2.292,28.109c0.013,0.766-5.258,0.527-5.247-0.201C78.671,24.325,77.692,10.235,76.88,4.26L76.88,4.26z
		 M44.937,62.724c0.171,0.938-5.505,1.914-5.677,0.929c-0.676-3.887-1.704-11.589-1.974-14.592
		c-0.595,2.165-1.371,4.613-1.866,5.912c-0.16,0.419-4.278,0.336-4.516-0.012c-0.929-1.364-1.907-3.082-2.685-4.662
		c0.05,2.958,0.212,8.743,0.212,12.612c0,0.867-5.524,0.46-5.524-0.534c0-5.133-0.047-10.084-0.168-15.044
		c-2.963,7.479-7.319,15.661-11.813,22.014c-0.507,0.717-5.561-2.769-5.105-3.368c3.056-4.02,5.41-7.981,6.962-11.082
		c-2.714-3.374-7.274-10.868-9.327-15.344c-0.416-0.906,4.662-3.319,5.049-2.599c1.523,2.829,5.542,10.275,7.392,12.574
		c1.077-1.745,2.985-5.879,3.939-8.578c0.115-0.327,1.528,0.177,2.735,0.792c-0.097-2.716-0.218-5.456-0.368-8.249
		c-0.047-0.873,4.316-1.124,4.622-0.398c1.418,3.36,4.031,9.401,5.625,12.887c1.113-3.737,2.61-8.987,3.578-12.66
		c0.155-0.587,5.16-0.065,5.238,0.952C41.941,43.132,43.659,55.701,44.937,62.724L44.937,62.724z M62.351,31.027
		c0.408,0.981-4.766,2.741-5.272,2.068c-1.585-2.11-3.055-12.602-3.068-17.469c-0.438,2.141-0.97,4.151-1.573,5.609
		c-0.171,0.413-4.245,0.304-4.48-0.046c-0.788-1.17-1.569-2.638-2.228-4.326c0.05,2.958,0.303,9.649,0.414,13.033
		c0.028,0.866-5.437,0.786-5.477-0.079c-0.42-8.908-0.838-18.754-1.325-28.649c-0.043-0.874,4.43-1.379,4.669-0.63
		c1.039,3.255,3.702,9.306,5.329,12.205c0.867-2.713,2.961-9.069,3.985-12.357c0.252-0.81,5.087-0.242,5.155,0.777
		C58.959,8.263,59.788,24.866,62.351,31.027L62.351,31.027z M99.117,89.559c3.844,0.354,3.233,5.593-0.128,5.556
		C94.929,95.07,94.881,89.168,99.117,89.559L99.117,89.559z M92.276,96.964c-5.253,2.47-6.698-6.071-1.448-5.645
		C94.026,91.578,94.587,95.878,92.276,96.964L92.276,96.964z M74.756,37.941c-0.166-0.831,4.194-1.74,4.392-0.986
		c1.591,6.06,5.346,22.347-0.571,30.677c-0.534,0.751-4.462-2.32-4.077-2.851c1.499-2.068,2.256-4.728,2.551-7.575
		c-1.54,4.836-5.776,7.79-9.876,8.377c-2.063,0.198-3.233-0.175-3.605-0.626c-0.821-0.995-1.571-27.443-0.238-31.449
		c0.234-0.705,4.668,0.448,4.512,1.175c-0.487,2.273-0.67,8.781-0.329,11.649c3.174-0.999,7.729-0.155,9.445,3.346
		C76.406,44.361,75.086,39.595,74.756,37.941L74.756,37.941z M104.291,69.174c-0.116-0.862-4.765-0.499-4.637,0.325
		c0.824,5.298,0.156,13.294-1.689,17.659c-0.288,0.681,4.037,2.16,4.304,1.581C104.301,84.335,105.09,75.097,104.291,69.174
		L104.291,69.174z M80.714,69.811c5.311-7.201,14.91-4.142,16.503,2.742c1.445,6.244-1.314,9.944-6.289,11.983
		c0.246,1.525,0.542,2.641,1.116,4.199c0.194,0.526-4.334,1.973-4.652,1.3c-0.887-1.875-1.704-5.951-1.857-8.176
		c-0.045-0.663,0.054-0.834,0.488-0.943c11.764-2.957,3.575-14.5-1.609-7.787C83.989,73.679,80.312,70.357,80.714,69.811
		L80.714,69.811z M41.996,66.075c0.467-0.054,1.208,4.927,0.682,5.036c-1.989,0.412-5.835,0.627-7.979,0.612
		c-0.092-0.001-0.092,0.001-0.089,0.128c0.128,6.471,1.213,17.907,2.296,25.028c0.125,0.82-5.575,1.215-5.752,0.238
		c-1.392-7.686-1.995-17.382-2.221-25.127c-0.005-0.182-0.041-0.232-0.208-0.24c-5.658-0.247-9.145-1.1-13.885-3.818
		c-0.522-0.3,1.864-4.694,2.594-4.306C24.391,67.321,36.296,66.74,41.996,66.075L41.996,66.075z M4.477,90.397
		c-1.154-4.169-0.871-15.13,0.372-18.916c0.149-0.453,4.624,0.56,4.53,1.182c-0.475,3.124-1.009,11.177-0.05,14.699
		c0.106,0.39,2.944,1.038,3.722,1.134c0.04-0.492,0.08-6.291,0.065-7.495c-0.009-0.747,4.755-0.436,4.772,0.139
		c0.037,1.252-0.002,6.81-0.005,8.145c1.384,0.211,2.565,0.279,3.838,0.183c0.074-0.005,0.242-0.053,0.261-0.194
		c0.175-1.282,0.765-9.105-1.064-10.715c-0.92-0.81,2.936-4.55,3.784-4.043c3.369,2.014,3.137,19.355,1.473,19.679
		C19.047,95.583,5.146,92.813,4.477,90.397L4.477,90.397z M88.767,42.185c0.021-0.958-4.871-1.242-4.891-0.353
		c-0.049,2.22-0.854,19.388-0.372,20.027c0.221,0.293,3.995,0.793,4.779,0.314c3.889-2.375,6.588-4.933,8.747-8.534
		c0.13,2.792-0.05,7.044-0.492,10.165c-0.097,0.691,4.939,1.301,4.995,0.625c0.595-7.247,0.489-17.44-0.637-25.941
		c-0.086-0.655-4.605-0.519-4.577,0.175c0.229,5.559-2.455,12.473-7.794,15.887C88.494,51.049,88.689,45.693,88.767,42.185
		L88.767,42.185z M68.334,58.89c5.749-1.335,4.662-9.653-0.259-7.201C67.538,51.956,67.592,57.221,68.334,58.89L68.334,58.89z
		 M55.056,37.171c0.032-0.717,5.031-0.261,5.024,0.436c-0.085,8.372,0.217,19.689,1.955,28.435c0.176,0.887-5.188,1.589-5.328,0.829
		c-0.612-3.324-1.176-7.723-1.463-11.774c-1.151,0.012-2.865,0.4-3.898,0.79c0.396,3.835,1.074,7.599,1.979,11.307
		c0.176,0.72-5.241,1.856-5.352,1.323c-2.418-11.582-3.581-23.816-3.451-35.474c0.009-0.845,5.469-0.47,5.432,0.403
		c-0.191,4.575,0.136,11.844,0.815,16.727c1.263-0.4,2.711-0.556,4.207-0.61C54.821,45.641,54.868,41.425,55.056,37.171
		L55.056,37.171z M88.964,10.822c-0.068-0.663-4.57-0.475-4.486,0.463c0.271,3.004,1.49,18.091,1.868,20.613
		c0.08,0.533,3.369,0.263,3.795-0.033c1.1-0.765,8.513-10.346,9.012-11.17c0.532,2.91,0.739,9.172,0.875,12.341
		c0.022,0.525,4.497,0.397,4.486-0.363c-0.094-5.886-1.19-18.246-3.055-23.753c-0.215-0.636-4.466,0.167-4.231,0.837
		c0.368,1.048,0.799,3.398,0.855,4.606c0.019,0.411-6.296,8.021-7.754,9.992C89.952,21.056,89.279,13.865,88.964,10.822
		L88.964,10.822z M38.91,29.29c0.267,0.692-4.599,2.368-4.978,1.633c-0.495-0.961-0.894-2.366-0.991-3.748
		c-0.582,2.004-3.121,3.475-6.146,3.405c-12.37-0.288-10.719-18.395,5.583-20.242c-0.375-2.622-5.72-3.9-9.125-0.027
		c-0.544,0.664-3.974-2.763-3.601-3.362c4.119-6.612,17.426-6.114,18.103,3.129C38.29,17.415,36.475,23.042,38.91,29.29L38.91,29.29
		z M32.346,15.887c-4.151-0.033-7.745,3.428-7.724,6.166c0.01,1.357,0.474,2.922,2.493,3.01
		C31.511,25.256,32.346,18.965,32.346,15.887L32.346,15.887z"></path>
</symbol>
</svg>
