<svg xmlns="http://www.w3.org/2000/svg">
    <symbol id="logo" viewBox="0 0 131 131">
        <path fill="currentColor" d="M72.028,121.739c0.781,0.704,1.259,1.706,1.259,2.961
    c0,1.212-0.469,2.259-1.244,3.006c-0.781,0.752-1.869,1.197-3.097,1.197c-1.25,0-2.35-0.427-3.134-1.173
    c-0.773-0.734-1.238-1.77-1.238-3.003c0-1.205,0.443-2.233,1.194-2.963c0.752-0.732,1.808-1.156,3.03-1.156
    C70.065,120.607,71.212,121.003,72.028,121.739L72.028,121.739z M117.461,37.116l-4.077,1.109l-0.318,0.087l-0.203-0.264
    l-3.987-5.206l-0.363-0.474l0.537-0.266l5.209-2.571l0.466-0.229l0.205,0.478l2.854,6.668l0.223,0.521L117.461,37.116
    L117.461,37.116z M53.902,10.301l5.113,27.127l0.089,0.467l-0.466,0.103l-5.689,1.265l-0.471,0.105l-0.113-0.471l-2.177-9.107
    c-0.685,0.799-1.534,1.41-2.47,1.842c-1.375,0.635-2.946,0.888-4.471,0.797c-6.017-0.414-7.401-6.436-8.532-11.37
    c-0.177-0.768-0.348-1.512-0.527-2.191l-0.129-0.489l0.493-0.116l5.605-1.315l0.481-0.112l0.11,0.484l1.259,5.527
    c0.36,1.585,1.419,2.433,2.57,2.658c0.454,0.089,0.924,0.083,1.369-0.009c0.443-0.091,0.866-0.272,1.232-0.531
    c0.881-0.621,1.423-1.729,1.113-3.225l-1.958-9.417l-0.093-0.45l0.444-0.123l6.604-1.831l0.516-0.143L53.902,10.301L53.902,10.301z
     M87.268,102.298l-2.317,17.685l-0.054,0.412l-0.416,0.015l-4.613,0.176l-0.487,0.019l-0.022-0.489l-0.831-18.233l-0.024-0.538
    l0.538,0.026l7.761,0.371l0.535,0.026L87.268,102.298L87.268,102.298z M62.386,107.261c-0.567,0.658-0.91,1.582-0.921,2.593
    l-0.005,0.537l-0.532-0.052l-4.495-0.436l-0.386-0.037l-0.056-0.383c-0.062-0.425-0.093-0.856-0.095-1.282
    c-0.008-2.386,0.921-4.565,2.436-6.228c1.512-1.659,3.609-2.811,5.936-3.148c0.443-0.065,0.905-0.099,1.375-0.101
    c3.063-0.018,5.694,1.412,7.469,3.506c1.058,1.247,1.815,2.734,2.179,4.289c0.366,1.564,0.336,3.204-0.181,4.751
    c-0.727,2.178-2.416,4.159-5.31,5.468l0.114,1.698l0.028,0.404l-0.392,0.105l-3.716,1.003l-0.389,0.105l-0.179-0.366l-3.19-6.5
    l-0.325-0.662l0.737-0.045c1.169-0.07,2.695-0.441,3.753-1.213c0.727-0.532,1.226-1.263,1.189-2.223
    c-0.031-0.819-0.353-1.516-0.867-2.006c-0.519-0.495-1.243-0.785-2.067-0.785C63.654,106.256,62.918,106.642,62.386,107.261
    L62.386,107.261z M109.23,72.238l1.55-7.066l0.112-0.505l0.497,0.133l5.558,1.497l0.585,0.158l-0.273,0.54l-2.966,5.864
    l-0.148,0.293l-0.326-0.024l-4.142-0.294l-0.568-0.04L109.23,72.238L109.23,72.238z M23.428,55.927l-5.353,0.663l-0.413,0.052
    l-0.119-0.402c-0.602-2.03-1.97-3.216-3.531-3.662c-0.835-0.239-1.729-0.271-2.591-0.112c-0.862,0.159-1.697,0.513-2.413,1.04
    c-1.394,1.026-2.343,2.732-2.197,4.989c0.085,1.295,0.571,2.373,1.294,3.192c0.712,0.808,1.659,1.372,2.683,1.652
    c1.025,0.281,2.131,0.279,3.159-0.042c1.058-0.331,2.04-1.003,2.773-2.055l0.245-0.35l0.381,0.192l4.837,2.437l0.431,0.217
    l-0.207,0.434c-0.898,1.885-2.265,3.365-3.921,4.4c-1.716,1.074-3.744,1.668-5.877,1.74c-3.533,0.12-6.578-0.961-8.794-2.942
    c-2.216-1.983-3.595-4.861-3.792-8.328c-0.2-3.481,0.855-6.71,2.872-9.138c1.954-2.354,4.812-3.953,8.304-4.3
    c3.168-0.315,6.153,0.559,8.439,2.321c2.239,1.726,3.806,4.305,4.217,7.45l0.065,0.492L23.428,55.927L23.428,55.927z
     M37.417,49.139l-1.726,8.064l3.797-0.048L37.417,49.139L37.417,49.139z M62.801,55.132l3.533-16.621l0.077-0.361l0.367-0.028
    l6.281-0.475l0.47-0.035l0.056,0.469l3.25,27.048l0.057,0.476l-0.477,0.069l-5.705,0.831l-0.477,0.07l-0.078-0.48l-1.295-8.013
    l-1.764,6.442l-0.088,0.326l-0.335,0.034l-4.784,0.494l-0.275,0.029l-0.168-0.223l-4.583-6.102l1.564,9.687l0.087,0.539
    l-0.547,0.029l-5.633,0.305l-0.462,0.025l-0.052-0.463l-2.819-25.193l-0.058-0.518l0.522-0.027l6.303-0.335l0.306-0.016
    l0.149,0.266L62.801,55.132L62.801,55.132z M95.632,57.827c0.283,0.737,0.473,1.522,0.552,2.336
    c0.196,2.032-0.207,3.764-1.024,5.188c-0.827,1.441-2.077,2.565-3.557,3.368c-1.46,0.792-3.154,1.274-4.892,1.442
    c-2.726,0.264-5.572-0.245-7.81-1.529l-0.225-0.13l-0.021-0.259l-2.143-27.297l-0.037-0.48l0.482-0.048l5.685-0.556l0.497-0.049
    l0.04,0.499l0.959,11.74c0.565-0.171,1.136-0.282,1.703-0.336c2.094-0.202,4.17,0.352,5.906,1.443
    C93.482,54.249,94.884,55.879,95.632,57.827L95.632,57.827z M119.789,50.984l-7.094,11.096l-0.128,0.202l-0.24,0.023l-5.616,0.549
    l-0.484,0.048l-0.051-0.487l-2.336-22.406l-0.052-0.5l0.502-0.041l6.2-0.495l0.496-0.039l0.034,0.497l0.696,10.025l7.119-11.109
    l0.123-0.192l0.227-0.03l6.098-0.793l0.47-0.061l0.079,0.465l4.133,24.047l0.093,0.538l-0.545,0.036l-6.419,0.433l-0.411,0.028
    l-0.099-0.404L119.789,50.984L119.789,50.984z M48.163,91.466l-2.83,9.264l-0.096,0.313l-0.324,0.033l-4.734,0.49l-0.361,0.038
    l-0.142-0.336l-3.643-8.658l-0.628,12.343l-0.025,0.506l-0.505-0.04l-5.511-0.434l-0.48-0.038l0.028-0.48l1.492-25.689l0.026-0.44
    l0.44-0.024l6.322-0.337l0.359-0.018l0.127,0.336l4.266,11.267l3.316-16.489l0.074-0.367l0.37-0.029l6.284-0.474l0.46-0.034
    l0.065,0.457l3.529,24.928l0.058,0.413l-0.397,0.125l-5.612,1.771l-0.542,0.172l-0.092-0.565L48.163,91.466L48.163,91.466z
     M63.808,90.693l0.401,4.11l0.048,0.487l-0.49,0.048l-5.628,0.549l-0.487,0.048l-0.048-0.49l-2.172-22.245l-0.047-0.487l0.49-0.049
    l5.628-0.549l0.487-0.047l0.048,0.49l1.125,11.527l5.857-0.399l-1.502-13.687l-0.053-0.484l0.486-0.058l5.615-0.659l0.492-0.058
    l0.053,0.494l2.815,26.195l0.054,0.496l-0.498,0.045l-5.629,0.522l-0.481,0.045l-0.052-0.482L69.7,90.319L63.808,90.693
    L63.808,90.693z M111.995,74.895l0.685,9.842l6.66-15.648l0.11-0.258l0.279-0.037l6.036-0.785l0.511-0.066l0.044,0.513
    l1.949,22.703l0.043,0.499l-0.501,0.033l-6.393,0.43l-0.491,0.033l-0.033-0.493l-0.645-9.717l-6.575,15.532l-0.114,0.269
    l-0.292,0.029l-5.581,0.545l-0.484,0.048l-0.051-0.487l-2.335-22.406l-0.052-0.501l0.502-0.041l6.199-0.495l0.495-0.039
    L111.995,74.895L111.995,74.895z M74.946,23.789l-8.073,1.182l0.349,2.434l9.679-1.129l0.497-0.058l0.048,0.501l0.593,6.064
    l0.048,0.487l-0.491,0.048l-16.205,1.583l-0.472,0.046l-0.062-0.474l-3.034-23.4l-0.062-0.485l0.486-0.064l16.157-2.102
    l0.471-0.061l0.078,0.468l0.969,5.805l0.086,0.51l-0.514,0.059l-9.943,1.154l0.346,2.396l8.154-1.069l0.481-0.062l0.07,0.478
    l0.758,5.13l0.072,0.488L74.946,23.789L74.946,23.789z M82.618,32.046c-0.311-0.589-0.499-1.237-0.499-1.973
    c0-0.968,0.353-1.752,0.94-2.304c0.606-0.571,1.456-0.883,2.417-0.883l0.096,0.002c0.977,0.023,1.845,0.378,2.473,0.975
    c0.636,0.604,1.025,1.452,1.025,2.452l-0.002,0.086c-0.023,0.959-0.741,2.243-1.598,3.451c-0.831,1.17-1.78,2.268-2.337,2.907
    l-0.212,0.244l-0.31-0.099l-1.488-0.477l-0.471-0.15l0.153-0.47l0.787-2.423C83.211,32.969,82.874,32.53,82.618,32.046
    L82.618,32.046z M73.08,4.376v0.042c-0.018,1.188-0.554,2.077-1.296,2.607c-0.398,0.285-0.859,0.467-1.328,0.532
    c-0.474,0.067-0.963,0.018-1.415-0.152c-0.796-0.301-1.479-0.977-1.781-2.072c-0.086-0.311-0.128-0.619-0.128-0.912
    c0.001-0.659,0.202-1.278,0.568-1.775c0.369-0.501,0.903-0.882,1.567-1.066c0.287-0.079,0.595-0.123,0.919-0.123h0.042
    c0.875,0.013,1.586,0.327,2.083,0.851C72.805,2.829,73.08,3.549,73.08,4.376L73.08,4.376z M66.13,4.045
    c0,0.235-0.021,0.477-0.062,0.72c-0.076,0.452-0.229,0.855-0.437,1.202c-0.394,0.655-0.99,1.117-1.677,1.38
    c-0.667,0.258-1.424,0.324-2.162,0.199c-0.524-0.089-1.04-0.275-1.51-0.557c-0.877-0.527-1.422-1.324-1.658-2.191
    C58.44,4.13,58.445,3.415,58.621,2.75c0.178-0.668,0.533-1.292,1.051-1.776C60.308,0.382,61.179,0,62.258,0
    c0.223,0,0.445,0.019,0.661,0.055c0.98,0.166,1.787,0.695,2.346,1.418C65.818,2.19,66.13,3.102,66.13,4.045L66.13,4.045z
     M85.651,122.978c0.73,0.79,1.128,1.877,1.09,3.113c-0.038,1.231-0.504,2.332-1.287,3.116c-0.759,0.762-1.813,1.222-3.058,1.218
    c-1.13-0.004-2.149-0.345-2.934-0.971c-0.767-0.611-1.309-1.492-1.511-2.595c-0.071-0.387-0.096-0.765-0.079-1.128
    c0.048-1.016,0.425-1.924,1.047-2.624c0.622-0.698,1.485-1.19,2.505-1.378c0.384-0.071,0.79-0.099,1.214-0.079
    C83.892,121.709,84.931,122.197,85.651,122.978L85.651,122.978z M40.62,37.513l9.108,29.912l0.15,0.494l-0.498,0.126l-5.776,1.472
    l-0.43,0.11l-0.154-0.416l-1.681-4.532l-7.961-0.073l-2.273,6.144l-0.161,0.438l-0.446-0.137l-5.679-1.742l-0.468-0.143
    l0.143-0.469l9.384-30.673l0.099-0.32l0.329-0.029l5.802-0.51l0.396-0.035L40.62,37.513L40.62,37.513z M97.611,62.103L95.24,41.256
    l-0.053-0.47l0.471-0.071l5.183-0.776l0.496-0.074l0.063,0.5l2.714,21.355l0.068,0.528l-0.532,0.025l-5.526,0.267l-0.46,0.022
    L97.611,62.103L97.611,62.103z M84.944,58.626c-0.561,0.383-0.938,1.092-0.918,2.194c0.016,0.789,0.278,1.642,0.772,2.249
    c0.387,0.476,0.927,0.799,1.606,0.796c0.324,0,0.644-0.038,0.949-0.109c0.659-0.154,1.236-0.472,1.641-0.912
    c0.392-0.425,0.631-0.974,0.632-1.606c-0.001-0.213-0.028-0.437-0.082-0.669c-0.24-1.034-1.117-1.796-2.108-2.134
    c-0.442-0.151-0.908-0.217-1.348-0.185C85.667,58.281,85.27,58.403,84.944,58.626L84.944,58.626z M18.752,87.319l3.531-12.116
    l0.096-0.329l0.341-0.026l6.476-0.479l0.715-0.052l-0.21,0.686l-7.174,23.455c-0.776,2.541-2.267,4.126-4.208,4.929
    c-2.112,0.874-4.742,0.799-7.542,0.016l-0.446-0.125l0.1-0.455c0.193-0.869,0.397-1.758,0.614-2.666
    c0.223-0.929,0.447-1.824,0.669-2.657l0.128-0.476l0.475,0.127c0.819,0.219,1.691,0.422,2.457,0.367
    c0.607-0.044,1.166-0.261,1.594-0.789l-9.685-16.26l-0.291-0.49l0.526-0.217l5.757-2.372l0.404-0.166l0.213,0.379L18.752,87.319
    L18.752,87.319z M77.671,73.649l5.686-0.557l0.503-0.048l0.035,0.504l0.356,5.073c0.826-0.196,1.666-0.292,2.5-0.292
    c2.042,0,4.044,0.574,5.679,1.629c1.652,1.066,2.934,2.621,3.519,4.573c0.224,0.748,0.346,1.554,0.346,2.41
    c0,1.901-0.416,3.527-1.137,4.881c-0.905,1.699-2.289,2.962-3.938,3.797c-1.632,0.827-3.523,1.235-5.462,1.235
    c-2.285,0-4.647-0.567-6.735-1.68l-0.24-0.128l-0.02-0.269l-1.535-20.602l-0.035-0.479L77.671,73.649L77.671,73.649z
     M97.707,97.704l-1.296-29.57l-0.019-0.444l0.439-0.065l5.812-0.852l0.557-0.081l0.006,0.562l0.359,30.187l0.006,0.475
    l-0.474,0.022l-4.875,0.236l-0.492,0.024L97.707,97.704L97.707,97.704z M85.955,84.826c-0.817,0.381-1.449,1.286-1.469,2.804
    c-0.018,1.355,0.545,2.149,1.301,2.483c0.331,0.146,0.704,0.211,1.081,0.202c0.388-0.009,0.785-0.098,1.155-0.254
    c0.976-0.414,1.768-1.314,1.758-2.546c-0.011-1.322-0.736-2.243-1.647-2.658c-0.35-0.16-0.732-0.247-1.106-0.252
    C86.656,84.599,86.287,84.671,85.955,84.826L85.955,84.826z"/>
    </symbol>
    <symbol id="drop" viewBox="0 0 30.9 30.9">
        <path
                style="fill-rule:evenodd;clip-rule:evenodd;" fill="currentColor"
                d="M15.45,0C23.983,0,30.9,6.917,30.9,15.45
      c0,8.533-6.917,15.45-15.45,15.45C6.917,30.9,0,23.983,0,15.45C0,6.917,6.917,0,15.45,0L15.45,0z M18.406,16.769L16.368,20.3
      c-0.09,0.155-0.22,0.29-0.386,0.386c-0.507,0.293-1.156,0.12-1.449-0.386l-2.038-3.531v-0.004l-1.987-3.441
      c-0.124-0.174-0.197-0.387-0.197-0.617c0-0.587,0.476-1.063,1.063-1.063h4.077h4.076v0.005c0.179,0,0.361,0.045,0.527,0.141
      c0.507,0.291,0.681,0.938,0.39,1.445l-2.006,3.475C18.428,16.73,18.418,16.749,18.406,16.769L18.406,16.769z"
        />
    </symbol>
    <symbol id="menu" viewBox="0 0 33.026 33.026">
        <path stroke="currentColor"
              style="fill:none;stroke-width:2.126;stroke-linecap:round;stroke-linejoin:round;stroke-miterlimit:22.9256;"
              d="M16.513,1.063c8.533,0,15.45,6.917,15.45,15.45c0,8.533-6.917,15.45-15.45,15.45c-8.533,0-15.45-6.917-15.45-15.45
      C1.063,7.98,7.98,1.063,16.513,1.063L16.513,1.063z M10.258,13.782h12.51 M10.258,19.243h12.51"/>
    </symbol>
    <symbol id="lk" viewBox="0 0 33.026 33.026">
        <path stroke="currentColor"
              style="fill:none;stroke-width:2.126;stroke-linecap:round;stroke-linejoin:round;stroke-miterlimit:22.9256;"
              d="M16.513,1.063c8.533,0,15.45,6.917,15.45,15.45c0,8.533-6.917,15.45-15.45,15.45s-15.45-6.917-15.45-15.45
      C1.063,7.98,7.98,1.063,16.513,1.063L16.513,1.063z M16.513,7.704c2.875,0,5.205,2.33,5.205,5.205c0,2.875-2.33,5.205-5.205,5.205
      s-5.205-2.33-5.205-5.205C11.308,10.034,13.638,7.704,16.513,7.704L16.513,7.704z M5.799,27.388
      c0.778-5.318,5.339-9.261,10.714-9.261c5.416,0,9.999,4.002,10.729,9.368"/>
    </symbol>
    <symbol id="play" viewBox="0 0 40 40">
        <path fill="currentColor" style="fill-rule:evenodd;clip-rule:evenodd;" d="M19.971,2.083c-3.103,0-6.166,0.814-8.926,2.407
    c-4.143,2.392-7.106,6.254-8.344,10.875c-1.238,4.621-0.603,9.447,1.789,13.59c2.392,4.143,6.254,7.106,10.875,8.344
    c4.621,1.238,9.447,0.603,13.59-1.789c4.143-2.392,7.106-6.254,8.345-10.875c1.238-4.621,0.603-9.447-1.789-13.59
    c-2.392-4.143-6.254-7.106-10.875-8.344C23.093,2.287,21.526,2.083,19.971,2.083L19.971,2.083z M20.033,40
    c-1.737,0-3.484-0.228-5.207-0.69c-5.158-1.382-9.469-4.69-12.139-9.314c-2.67-4.624-3.379-10.012-1.997-15.17
    c1.382-5.158,4.69-9.469,9.314-12.139l0.52,0.901l-0.52-0.901c4.625-2.67,10.012-3.379,15.17-1.997
    c5.158,1.382,9.469,4.69,12.139,9.314c2.67,4.625,3.379,10.012,1.997,15.17c-1.382,5.158-4.69,9.469-9.314,12.139
    C26.915,39.092,23.496,40,20.033,40L20.033,40z"/>
        <path fill="currentColor" style="fill-rule:evenodd;clip-rule:evenodd;" d="M15.65,12.481c-0.014,0-0.03,0.004-0.049,0.015
    c-0.048,0.028-0.048,0.066-0.048,0.084v14.842c0,0.018,0,0.056,0.048,0.084c0.048,0.028,0.081,0.009,0.097,0l12.854-7.421
    c0.016-0.009,0.048-0.028,0.048-0.084c0-0.056-0.033-0.075-0.048-0.084l-12.854-7.421C15.688,12.49,15.672,12.481,15.65,12.481
    L15.65,12.481z M15.649,29.603c-0.374,0-0.748-0.098-1.089-0.295c-0.682-0.394-1.089-1.099-1.089-1.887V12.579
    c0-0.788,0.407-1.493,1.089-1.887c0.682-0.394,1.496-0.394,2.179,0l12.854,7.421c0.682,0.394,1.089,1.099,1.089,1.887
    c0,0.788-0.407,1.493-1.089,1.887l-12.854,7.421C16.397,29.505,16.023,29.603,15.649,29.603L15.649,29.603z"/>
    </symbol>
    <symbol id="arrow" viewBox="0 0 33.026 33.026">
        <path stroke="currentColor"
              style="fill:none;stroke-width:2.126;stroke-linecap:round;stroke-linejoin:round;stroke-miterlimit:22.9256;"
              d="M1.063,16.513c0-8.533,6.917-15.45,15.45-15.45c8.533,0,15.45,6.917,15.45,15.45c0,8.533-6.917,15.45-15.45,15.45       C7.98,31.963,1.063,25.046,1.063,16.513L1.063,16.513z M18.182,13.557l3.531,2.038c0.155,0.09,0.29,0.22,0.386,0.386       c0.293,0.506,0.12,1.156-0.386,1.449l-3.531,2.038h-0.004l-3.441,1.987c-0.174,0.124-0.387,0.197-0.617,0.197       c-0.587,0-1.063-0.476-1.063-1.063v-4.077v-4.076h0.004c0-0.179,0.045-0.361,0.141-0.527c0.291-0.507,0.938-0.682,1.445-0.39       l3.475,2.006C18.143,13.535,18.162,13.545,18.182,13.557L18.182,13.557z"/>

    </symbol>
    <symbol id="doc" viewBox="0 0 514.346 513.9">
        <path stroke="currentColor"
              style="fill:none;stroke-width:28.3465;stroke-linecap:round;stroke-linejoin:round;stroke-miterlimit:22.9256;"
              d="M334.944,14.175H176.402H70.422c-30.937,0-56.249,25.312-56.249,56.249v373.054c0,30.937,25.312,56.249,56.249,56.249h373.501
    c30.937,0,56.249-25.312,56.249-56.249V176.474 M497.982,176.01H393.876c-30.937,0-56.249-25.312-56.249-56.249V14.173
     M337.627,14.175l161.782,161.552"/>
    </symbol>
    <symbol id="info" viewBox="0 0 33.026 33.026">
        <path
                stroke="currentColor"
                style="fill:none;stroke-width:2.126;stroke-linecap:round;stroke-linejoin:round;stroke-miterlimit:22.9256;"
                d="M16.513,1.063c8.533,0,15.45,6.917,15.45,15.45c0,8.533-6.917,15.45-15.45,15.45c-8.533,0-15.45-6.917-15.45-15.45
      C1.063,7.98,7.98,1.063,16.513,1.063L16.513,1.063z M16.654,12.728v12.51 M15.18,25.238h2.948 M15.147,12.728h1.507"/>
        <path
                fill="currentColor"
                style="fill-rule:evenodd;clip-rule:evenodd;"
                d="M16.296,7.22c0.772,0,1.398,0.626,1.398,1.398
      c0,0.772-0.626,1.398-1.398,1.398c-0.772,0-1.398-0.626-1.398-1.398C14.899,7.846,15.524,7.22,16.296,7.22L16.296,7.22z"/>
    </symbol>
    <symbol id="star" viewBox="0 0 32.44 32.39">
        <path
                fill="currentColor"
                style="fill-rule:evenodd;clip-rule:evenodd;"
                d="M7.534,20.714L5.821,31.213
    c-0.062,0.383,0.099,0.768,0.417,0.992c0.317,0.223,0.734,0.247,1.075,0.058l8.908-4.923l8.908,4.925
    c0.154,0.084,0.323,0.126,0.49,0.126c0.205,0,0.41-0.062,0.584-0.185c0.318-0.224,0.478-0.609,0.416-0.992l-1.713-10.498
    l7.245-7.426c0.265-0.272,0.357-0.67,0.237-1.03c-0.12-0.361-0.432-0.622-0.808-0.68l-9.973-1.523l-4.47-9.522
    c-0.334-0.711-1.5-0.711-1.834,0l-4.469,9.522l-9.973,1.523c-0.376,0.058-0.688,0.319-0.808,0.68
    c-0.12,0.361-0.03,0.759,0.235,1.03L7.534,20.714L7.534,20.714z"
        />
    </symbol>

    <symbol id="quiz-logo" viewBox="0 0 130.058 130.425">
        <path fill="currentColor" style="fill-rule:evenodd;clip-rule:evenodd;" d="M72.028,121.739c0.781,0.704,1.259,1.706,1.259,2.961
    c0,1.212-0.469,2.259-1.244,3.006c-0.781,0.752-1.869,1.197-3.097,1.197c-1.25,0-2.35-0.427-3.134-1.173
    c-0.773-0.734-1.238-1.77-1.238-3.003c0-1.205,0.443-2.233,1.194-2.963c0.752-0.732,1.808-1.156,3.03-1.156
    C70.065,120.607,71.212,121.003,72.028,121.739L72.028,121.739z M117.461,37.116l-4.077,1.109l-0.318,0.087l-0.203-0.264
    l-3.987-5.206l-0.363-0.474l0.537-0.266l5.209-2.571l0.466-0.229l0.205,0.478l2.854,6.668l0.223,0.521L117.461,37.116
    L117.461,37.116z M53.902,10.301l5.113,27.127l0.089,0.467l-0.466,0.103l-5.689,1.265l-0.471,0.105l-0.113-0.471l-2.177-9.107
    c-0.685,0.799-1.534,1.41-2.47,1.842c-1.375,0.635-2.946,0.888-4.471,0.797c-6.017-0.414-7.401-6.436-8.532-11.37
    c-0.177-0.768-0.348-1.512-0.527-2.191l-0.129-0.489l0.493-0.116l5.605-1.315l0.481-0.112l0.11,0.484l1.259,5.527
    c0.36,1.585,1.419,2.433,2.57,2.658c0.454,0.089,0.924,0.083,1.369-0.009c0.443-0.091,0.866-0.272,1.232-0.531
    c0.881-0.621,1.423-1.729,1.113-3.225l-1.958-9.417l-0.093-0.45l0.444-0.123l6.604-1.831l0.516-0.143L53.902,10.301L53.902,10.301z
     M87.268,102.298l-2.317,17.685l-0.054,0.412l-0.416,0.015l-4.613,0.176l-0.487,0.019l-0.022-0.489l-0.831-18.233l-0.024-0.538
    l0.538,0.026l7.761,0.371l0.535,0.026L87.268,102.298L87.268,102.298z M62.386,107.261c-0.567,0.658-0.91,1.582-0.921,2.593
    l-0.005,0.537l-0.532-0.052l-4.495-0.436l-0.386-0.037l-0.056-0.383c-0.062-0.425-0.093-0.856-0.095-1.282
    c-0.008-2.386,0.921-4.565,2.436-6.228c1.512-1.659,3.609-2.811,5.936-3.148c0.443-0.065,0.905-0.099,1.375-0.101
    c3.063-0.018,5.694,1.412,7.469,3.506c1.058,1.247,1.815,2.734,2.179,4.289c0.366,1.564,0.336,3.204-0.181,4.751
    c-0.727,2.178-2.416,4.159-5.31,5.468l0.114,1.698l0.028,0.404l-0.392,0.105l-3.716,1.003l-0.389,0.105l-0.179-0.366l-3.19-6.5
    l-0.325-0.662l0.737-0.045c1.169-0.07,2.695-0.441,3.753-1.213c0.727-0.532,1.226-1.263,1.189-2.223
    c-0.031-0.819-0.353-1.516-0.867-2.006c-0.519-0.495-1.243-0.785-2.067-0.785C63.654,106.256,62.918,106.642,62.386,107.261
    L62.386,107.261z M109.23,72.238l1.55-7.066l0.112-0.505l0.497,0.133l5.558,1.497l0.585,0.158l-0.273,0.54l-2.966,5.864
    l-0.148,0.293l-0.326-0.024l-4.142-0.294l-0.568-0.04L109.23,72.238L109.23,72.238z M23.428,55.927l-5.353,0.663l-0.413,0.052
    l-0.119-0.402c-0.602-2.03-1.97-3.216-3.531-3.662c-0.835-0.239-1.729-0.271-2.591-0.112c-0.862,0.159-1.697,0.513-2.413,1.04
    c-1.394,1.026-2.343,2.732-2.197,4.989c0.085,1.295,0.571,2.373,1.294,3.192c0.712,0.808,1.659,1.372,2.683,1.652
    c1.025,0.281,2.131,0.279,3.159-0.042c1.058-0.331,2.04-1.003,2.773-2.055l0.245-0.35l0.381,0.192l4.837,2.437l0.431,0.217
    l-0.207,0.434c-0.898,1.885-2.265,3.365-3.921,4.4c-1.716,1.074-3.744,1.668-5.877,1.74c-3.533,0.12-6.578-0.961-8.794-2.942
    c-2.216-1.983-3.595-4.861-3.792-8.328c-0.2-3.481,0.855-6.71,2.872-9.138c1.954-2.354,4.812-3.953,8.304-4.3
    c3.168-0.315,6.153,0.559,8.439,2.321c2.239,1.726,3.806,4.305,4.217,7.45l0.065,0.492L23.428,55.927L23.428,55.927z
     M37.417,49.139l-1.726,8.064l3.797-0.048L37.417,49.139L37.417,49.139z M62.801,55.132l3.533-16.621l0.077-0.361l0.367-0.028
    l6.281-0.475l0.47-0.035l0.056,0.469l3.25,27.048l0.057,0.476l-0.477,0.069l-5.705,0.831l-0.477,0.07l-0.078-0.48l-1.295-8.013
    l-1.764,6.442l-0.088,0.326l-0.335,0.034l-4.784,0.494l-0.275,0.029l-0.168-0.223l-4.583-6.102l1.564,9.687l0.087,0.539
    l-0.547,0.029l-5.633,0.305l-0.462,0.025l-0.052-0.463l-2.819-25.193l-0.058-0.518l0.522-0.027l6.303-0.335l0.306-0.016
    l0.149,0.266L62.801,55.132L62.801,55.132z M95.632,57.827c0.283,0.737,0.473,1.522,0.552,2.336
    c0.196,2.032-0.207,3.764-1.024,5.188c-0.827,1.441-2.077,2.565-3.557,3.368c-1.46,0.792-3.154,1.274-4.892,1.442
    c-2.726,0.264-5.572-0.245-7.81-1.529l-0.225-0.13l-0.021-0.259l-2.143-27.297l-0.037-0.48l0.482-0.048l5.685-0.556l0.497-0.049
    l0.04,0.499l0.959,11.74c0.565-0.171,1.136-0.282,1.703-0.336c2.094-0.202,4.17,0.352,5.906,1.443
    C93.482,54.249,94.884,55.879,95.632,57.827L95.632,57.827z M119.789,50.984l-7.094,11.096l-0.128,0.202l-0.24,0.023l-5.616,0.549
    l-0.484,0.048l-0.051-0.487l-2.336-22.406l-0.052-0.5l0.502-0.041l6.2-0.495l0.496-0.039l0.034,0.497l0.696,10.025l7.119-11.109
    l0.123-0.192l0.227-0.03l6.098-0.793l0.47-0.061l0.079,0.465l4.133,24.047l0.093,0.538l-0.545,0.036l-6.419,0.433l-0.411,0.028
    l-0.099-0.404L119.789,50.984L119.789,50.984z M48.163,91.466l-2.83,9.264l-0.096,0.313l-0.324,0.033l-4.734,0.49l-0.361,0.038
    l-0.142-0.336l-3.643-8.658l-0.628,12.343l-0.025,0.506l-0.505-0.04l-5.511-0.434l-0.48-0.038l0.028-0.48l1.492-25.689l0.026-0.44
    l0.44-0.024l6.322-0.337l0.359-0.018l0.127,0.336l4.266,11.267l3.316-16.489l0.074-0.367l0.37-0.029l6.284-0.474l0.46-0.034
    l0.065,0.457l3.529,24.928l0.058,0.413l-0.397,0.125l-5.612,1.771l-0.542,0.172l-0.092-0.565L48.163,91.466L48.163,91.466z
     M63.808,90.693l0.401,4.11l0.048,0.487l-0.49,0.048l-5.628,0.549l-0.487,0.048l-0.048-0.49l-2.172-22.245l-0.047-0.487l0.49-0.049
    l5.628-0.549l0.487-0.047l0.048,0.49l1.125,11.527l5.857-0.399l-1.502-13.687l-0.053-0.484l0.486-0.058l5.615-0.659l0.492-0.058
    l0.053,0.494l2.815,26.195l0.054,0.496l-0.498,0.045l-5.629,0.522l-0.481,0.045l-0.052-0.482L69.7,90.319L63.808,90.693
    L63.808,90.693z M111.995,74.895l0.685,9.842l6.66-15.648l0.11-0.258l0.279-0.037l6.036-0.785l0.511-0.066l0.044,0.513
    l1.949,22.703l0.043,0.499l-0.501,0.033l-6.393,0.43l-0.491,0.033l-0.033-0.493l-0.645-9.717l-6.575,15.532l-0.114,0.269
    l-0.292,0.029l-5.581,0.545l-0.484,0.048l-0.051-0.487l-2.335-22.406l-0.052-0.501l0.502-0.041l6.199-0.495l0.495-0.039
    L111.995,74.895L111.995,74.895z M74.946,23.789l-8.073,1.182l0.349,2.434l9.679-1.129l0.497-0.058l0.048,0.501l0.593,6.064
    l0.048,0.487l-0.491,0.048l-16.205,1.583l-0.472,0.046l-0.062-0.474l-3.034-23.4l-0.062-0.485l0.486-0.064l16.157-2.102
    l0.471-0.061l0.078,0.468l0.969,5.805l0.086,0.51l-0.514,0.059l-9.943,1.154l0.346,2.396l8.154-1.069l0.481-0.062l0.07,0.478
    l0.758,5.13l0.072,0.488L74.946,23.789L74.946,23.789z M82.618,32.046c-0.311-0.589-0.499-1.237-0.499-1.973
    c0-0.968,0.353-1.752,0.94-2.304c0.606-0.571,1.456-0.883,2.417-0.883l0.096,0.002c0.977,0.023,1.845,0.378,2.473,0.975
    c0.636,0.604,1.025,1.452,1.025,2.452l-0.002,0.086c-0.023,0.959-0.741,2.243-1.598,3.451c-0.831,1.17-1.78,2.268-2.337,2.907
    l-0.212,0.244l-0.31-0.099l-1.488-0.477l-0.471-0.15l0.153-0.47l0.787-2.423C83.211,32.969,82.874,32.53,82.618,32.046
    L82.618,32.046z M73.08,4.376v0.042c-0.018,1.188-0.554,2.077-1.296,2.607c-0.398,0.285-0.859,0.467-1.328,0.532
    c-0.474,0.067-0.963,0.018-1.415-0.152c-0.796-0.301-1.479-0.977-1.781-2.072c-0.086-0.311-0.128-0.619-0.128-0.912
    c0.001-0.659,0.202-1.278,0.568-1.775c0.369-0.501,0.903-0.882,1.567-1.066c0.287-0.079,0.595-0.123,0.919-0.123h0.042
    c0.875,0.013,1.586,0.327,2.083,0.851C72.805,2.829,73.08,3.549,73.08,4.376L73.08,4.376z M66.13,4.045
    c0,0.235-0.021,0.477-0.062,0.72c-0.076,0.452-0.229,0.855-0.437,1.202c-0.394,0.655-0.99,1.117-1.677,1.38
    c-0.667,0.258-1.424,0.324-2.162,0.199c-0.524-0.089-1.04-0.275-1.51-0.557c-0.877-0.527-1.422-1.324-1.658-2.191
    C58.44,4.13,58.445,3.415,58.621,2.75c0.178-0.668,0.533-1.292,1.051-1.776C60.308,0.382,61.179,0,62.258,0
    c0.223,0,0.445,0.019,0.661,0.055c0.98,0.166,1.787,0.695,2.346,1.418C65.818,2.19,66.13,3.102,66.13,4.045L66.13,4.045z
     M85.651,122.978c0.73,0.79,1.128,1.877,1.09,3.113c-0.038,1.231-0.504,2.332-1.287,3.116c-0.759,0.762-1.813,1.222-3.058,1.218
    c-1.13-0.004-2.149-0.345-2.934-0.971c-0.767-0.611-1.309-1.492-1.511-2.595c-0.071-0.387-0.096-0.765-0.079-1.128
    c0.048-1.016,0.425-1.924,1.047-2.624c0.622-0.698,1.485-1.19,2.505-1.378c0.384-0.071,0.79-0.099,1.214-0.079
    C83.892,121.709,84.931,122.197,85.651,122.978L85.651,122.978z M40.62,37.513l9.108,29.912l0.15,0.494l-0.498,0.126l-5.776,1.472
    l-0.43,0.11l-0.154-0.416l-1.681-4.532l-7.961-0.073l-2.273,6.144l-0.161,0.438l-0.446-0.137l-5.679-1.742l-0.468-0.143
    l0.143-0.469l9.384-30.673l0.099-0.32l0.329-0.029l5.802-0.51l0.396-0.035L40.62,37.513L40.62,37.513z M97.611,62.103L95.24,41.256
    l-0.053-0.47l0.471-0.071l5.183-0.776l0.496-0.074l0.063,0.5l2.714,21.355l0.068,0.528l-0.532,0.025l-5.526,0.267l-0.46,0.022
    L97.611,62.103L97.611,62.103z M84.944,58.626c-0.561,0.383-0.938,1.092-0.918,2.194c0.016,0.789,0.278,1.642,0.772,2.249
    c0.387,0.476,0.927,0.799,1.606,0.796c0.324,0,0.644-0.038,0.949-0.109c0.659-0.154,1.236-0.472,1.641-0.912
    c0.392-0.425,0.631-0.974,0.632-1.606c-0.001-0.213-0.028-0.437-0.082-0.669c-0.24-1.034-1.117-1.796-2.108-2.134
    c-0.442-0.151-0.908-0.217-1.348-0.185C85.667,58.281,85.27,58.403,84.944,58.626L84.944,58.626z M18.752,87.319l3.531-12.116
    l0.096-0.329l0.341-0.026l6.476-0.479l0.715-0.052l-0.21,0.686l-7.174,23.455c-0.776,2.541-2.267,4.126-4.208,4.929
    c-2.112,0.874-4.742,0.799-7.542,0.016l-0.446-0.125l0.1-0.455c0.193-0.869,0.397-1.758,0.614-2.666
    c0.223-0.929,0.447-1.824,0.669-2.657l0.128-0.476l0.475,0.127c0.819,0.219,1.691,0.422,2.457,0.367
    c0.607-0.044,1.166-0.261,1.594-0.789l-9.685-16.26l-0.291-0.49l0.526-0.217l5.757-2.372l0.404-0.166l0.213,0.379L18.752,87.319
    L18.752,87.319z M77.671,73.649l5.686-0.557l0.503-0.048l0.035,0.504l0.356,5.073c0.826-0.196,1.666-0.292,2.5-0.292
    c2.042,0,4.044,0.574,5.679,1.629c1.652,1.066,2.934,2.621,3.519,4.573c0.224,0.748,0.346,1.554,0.346,2.41
    c0,1.901-0.416,3.527-1.137,4.881c-0.905,1.699-2.289,2.962-3.938,3.797c-1.632,0.827-3.523,1.235-5.462,1.235
    c-2.285,0-4.647-0.567-6.735-1.68l-0.24-0.128l-0.02-0.269l-1.535-20.602l-0.035-0.479L77.671,73.649L77.671,73.649z
     M97.707,97.704l-1.296-29.57l-0.019-0.444l0.439-0.065l5.812-0.852l0.557-0.081l0.006,0.562l0.359,30.187l0.006,0.475
    l-0.474,0.022l-4.875,0.236l-0.492,0.024L97.707,97.704L97.707,97.704z M85.955,84.826c-0.817,0.381-1.449,1.286-1.469,2.804
    c-0.018,1.355,0.545,2.149,1.301,2.483c0.331,0.146,0.704,0.211,1.081,0.202c0.388-0.009,0.785-0.098,1.155-0.254
    c0.976-0.414,1.768-1.314,1.758-2.546c-0.011-1.322-0.736-2.243-1.647-2.658c-0.35-0.16-0.732-0.247-1.106-0.252
    C86.656,84.599,86.287,84.671,85.955,84.826L85.955,84.826z"/>
    </symbol>

    <symbol id="school-quiz-logo" viewBox="0 0 110.15 99.711">
        <path fill="currentColor" d="M11.211,8.797c4.873-0.033,7.331,1.924,9.196,4.631c0.509,0.739-3.172,3.705-3.853,3.072
		c-1.161-1.612-2.424-2.558-4.837-2.542c-7.444,0.051-7.738,14.984-0.763,15.081c2.042,0.028,4.133-1.011,5.618-2.164
		c0.821-0.484,3.652,3.963,2.932,4.513c-2.538,1.938-4.761,3.193-8.548,3.219C-4.457,34.713-2.905,8.664,11.211,8.797L11.211,8.797z
		 M107.82,68.4c-0.365,0.052-0.478-0.264-0.218-0.537c0.095-0.1,0.312-0.463,0.345-0.708c0.039-0.288-0.18-0.43-0.573-0.384
		c-3.715,0.429-3.289-5.102,0.162-5.01c3.121,0.082,3.226,4.02,1.482,5.916C108.641,68.086,108.218,68.343,107.82,68.4L107.82,68.4z
		 M82.488,76.768c2.306,5.892-2.619,8.749-7.121,10.828c-0.189,0.087-0.228,0.16-0.082,0.306c1.661,1.655,4.675,1.101,6.34-0.424
		c0.452-0.414,2.816,3.395,2.397,3.78c-1.788,1.644-4.301,2.29-6.169,2.415c-3.805,0.255-6.734-2.057-8.196-5.383
		c0.363,3.506,0.714,6.994,0.984,9.929c0.061,0.66-4.952,1.182-5.044,0.558c-0.358-2.445-1.948-21.881-2.156-23.4
		c-0.634-0.145-2.15,0.042-2.683,0.325c1.912,16.035-2.705,22.139-7.636,24.004c-0.458,0.173-3.184-4.39-2.68-4.679
		c6.488-3.726,5.37-17.448,3.946-22.867c-0.508-1.933,13.338-3.28,13.427-1.849c0.071,1.142,0.486,5.08,0.999,9.943
		c0.47-2.77,1.809-5.306,4.637-6.64C76.836,72.018,80.925,72.773,82.488,76.768L82.488,76.768z M74.381,78.283
		c-0.822,1.072-1.539,3.445-1.06,5.002c3.009-1.092,5.676-2.903,5.554-4.242C78.63,76.353,75.675,76.597,74.381,78.283
		L74.381,78.283z M85.656,7.774c3.055-0.543,5.786-0.217,8.025,0.932c0.285,0.146,0.506,0.103,0.669-0.129
		c0.58-0.825,1.976-3.372,1.327-3.701c-3.457-1.755-6.699-2.104-10.857-1.616c-0.494,0.058-0.809,0.352-0.773,0.863
		c0.067,0.952,0.402,2.511,0.683,3.285C84.964,8.049,85.124,7.868,85.656,7.774L85.656,7.774z M60.806,2.713
		c0.018-0.786,4.553-0.811,4.57,0.09c0.044,2.24,0.403,8.903,0.713,10.653c3.921-4.417,9.79-3.728,10.368,2.993
		c0.56,6.506-3.794,13.252-12.461,11.897c-0.457-0.072-0.848-0.43-0.961-0.798C62.038,24.317,60.678,8.278,60.806,2.713
		L60.806,2.713z M69.537,16.091c-1.883,1.639-2.947,4.861-2.423,7.59c1.778-0.505,5.006-1.665,5.541-5.742
		C72.945,15.734,70.974,14.841,69.537,16.091L69.537,16.091z M85.031,34.727c3.109,0.168,5.766-0.485,7.809-1.894
		c0.259-0.179,0.486-0.164,0.683,0.047c0.7,0.747,2.472,3.102,1.88,3.506c-3.157,2.157-6.315,2.894-10.509,2.913
		c-0.499,0.002-0.855-0.251-0.898-0.762c-0.079-0.951,0.015-2.536,0.175-3.337C84.303,34.538,84.489,34.698,85.031,34.727
		L85.031,34.727z M42.52,74.028c0.45-0.4,0.878-0.61,1.218-0.48c0.875,0.334,2.7,0.79,4.181,0.512
		c6.33-1.191,8.857,20.163-3.957,20.39c-5.438,0.096-6.434-6.063-5.884-10.172C38.59,80.45,40.138,76.149,42.52,74.028L42.52,74.028
		z M45.016,78.423c-1.47,2.322-3.348,8.338-1.352,11.373c4.065-1.127,4.905-7.849,3.529-11.14
		C46.681,77.432,45.715,77.319,45.016,78.423L45.016,78.423z M76.88,4.26c-0.121-0.892,4.485-1.259,4.628-0.455
		c1.042,5.879,2.146,19.565,2.292,28.109c0.013,0.766-5.258,0.527-5.247-0.201C78.671,24.325,77.692,10.235,76.88,4.26L76.88,4.26z
		 M44.937,62.724c0.171,0.938-5.505,1.914-5.677,0.929c-0.676-3.887-1.704-11.589-1.974-14.592
		c-0.595,2.165-1.371,4.613-1.866,5.912c-0.16,0.419-4.278,0.336-4.516-0.012c-0.929-1.364-1.907-3.082-2.685-4.662
		c0.05,2.958,0.212,8.743,0.212,12.612c0,0.867-5.524,0.46-5.524-0.534c0-5.133-0.047-10.084-0.168-15.044
		c-2.963,7.479-7.319,15.661-11.813,22.014c-0.507,0.717-5.561-2.769-5.105-3.368c3.056-4.02,5.41-7.981,6.962-11.082
		c-2.714-3.374-7.274-10.868-9.327-15.344c-0.416-0.906,4.662-3.319,5.049-2.599c1.523,2.829,5.542,10.275,7.392,12.574
		c1.077-1.745,2.985-5.879,3.939-8.578c0.115-0.327,1.528,0.177,2.735,0.792c-0.097-2.716-0.218-5.456-0.368-8.249
		c-0.047-0.873,4.316-1.124,4.622-0.398c1.418,3.36,4.031,9.401,5.625,12.887c1.113-3.737,2.61-8.987,3.578-12.66
		c0.155-0.587,5.16-0.065,5.238,0.952C41.941,43.132,43.659,55.701,44.937,62.724L44.937,62.724z M62.351,31.027
		c0.408,0.981-4.766,2.741-5.272,2.068c-1.585-2.11-3.055-12.602-3.068-17.469c-0.438,2.141-0.97,4.151-1.573,5.609
		c-0.171,0.413-4.245,0.304-4.48-0.046c-0.788-1.17-1.569-2.638-2.228-4.326c0.05,2.958,0.303,9.649,0.414,13.033
		c0.028,0.866-5.437,0.786-5.477-0.079c-0.42-8.908-0.838-18.754-1.325-28.649c-0.043-0.874,4.43-1.379,4.669-0.63
		c1.039,3.255,3.702,9.306,5.329,12.205c0.867-2.713,2.961-9.069,3.985-12.357c0.252-0.81,5.087-0.242,5.155,0.777
		C58.959,8.263,59.788,24.866,62.351,31.027L62.351,31.027z M99.117,89.559c3.844,0.354,3.233,5.593-0.128,5.556
		C94.929,95.07,94.881,89.168,99.117,89.559L99.117,89.559z M92.276,96.964c-5.253,2.47-6.698-6.071-1.448-5.645
		C94.026,91.578,94.587,95.878,92.276,96.964L92.276,96.964z M74.756,37.941c-0.166-0.831,4.194-1.74,4.392-0.986
		c1.591,6.06,5.346,22.347-0.571,30.677c-0.534,0.751-4.462-2.32-4.077-2.851c1.499-2.068,2.256-4.728,2.551-7.575
		c-1.54,4.836-5.776,7.79-9.876,8.377c-2.063,0.198-3.233-0.175-3.605-0.626c-0.821-0.995-1.571-27.443-0.238-31.449
		c0.234-0.705,4.668,0.448,4.512,1.175c-0.487,2.273-0.67,8.781-0.329,11.649c3.174-0.999,7.729-0.155,9.445,3.346
		C76.406,44.361,75.086,39.595,74.756,37.941L74.756,37.941z M104.291,69.174c-0.116-0.862-4.765-0.499-4.637,0.325
		c0.824,5.298,0.156,13.294-1.689,17.659c-0.288,0.681,4.037,2.16,4.304,1.581C104.301,84.335,105.09,75.097,104.291,69.174
		L104.291,69.174z M80.714,69.811c5.311-7.201,14.91-4.142,16.503,2.742c1.445,6.244-1.314,9.944-6.289,11.983
		c0.246,1.525,0.542,2.641,1.116,4.199c0.194,0.526-4.334,1.973-4.652,1.3c-0.887-1.875-1.704-5.951-1.857-8.176
		c-0.045-0.663,0.054-0.834,0.488-0.943c11.764-2.957,3.575-14.5-1.609-7.787C83.989,73.679,80.312,70.357,80.714,69.811
		L80.714,69.811z M41.996,66.075c0.467-0.054,1.208,4.927,0.682,5.036c-1.989,0.412-5.835,0.627-7.979,0.612
		c-0.092-0.001-0.092,0.001-0.089,0.128c0.128,6.471,1.213,17.907,2.296,25.028c0.125,0.82-5.575,1.215-5.752,0.238
		c-1.392-7.686-1.995-17.382-2.221-25.127c-0.005-0.182-0.041-0.232-0.208-0.24c-5.658-0.247-9.145-1.1-13.885-3.818
		c-0.522-0.3,1.864-4.694,2.594-4.306C24.391,67.321,36.296,66.74,41.996,66.075L41.996,66.075z M4.477,90.397
		c-1.154-4.169-0.871-15.13,0.372-18.916c0.149-0.453,4.624,0.56,4.53,1.182c-0.475,3.124-1.009,11.177-0.05,14.699
		c0.106,0.39,2.944,1.038,3.722,1.134c0.04-0.492,0.08-6.291,0.065-7.495c-0.009-0.747,4.755-0.436,4.772,0.139
		c0.037,1.252-0.002,6.81-0.005,8.145c1.384,0.211,2.565,0.279,3.838,0.183c0.074-0.005,0.242-0.053,0.261-0.194
		c0.175-1.282,0.765-9.105-1.064-10.715c-0.92-0.81,2.936-4.55,3.784-4.043c3.369,2.014,3.137,19.355,1.473,19.679
		C19.047,95.583,5.146,92.813,4.477,90.397L4.477,90.397z M88.767,42.185c0.021-0.958-4.871-1.242-4.891-0.353
		c-0.049,2.22-0.854,19.388-0.372,20.027c0.221,0.293,3.995,0.793,4.779,0.314c3.889-2.375,6.588-4.933,8.747-8.534
		c0.13,2.792-0.05,7.044-0.492,10.165c-0.097,0.691,4.939,1.301,4.995,0.625c0.595-7.247,0.489-17.44-0.637-25.941
		c-0.086-0.655-4.605-0.519-4.577,0.175c0.229,5.559-2.455,12.473-7.794,15.887C88.494,51.049,88.689,45.693,88.767,42.185
		L88.767,42.185z M68.334,58.89c5.749-1.335,4.662-9.653-0.259-7.201C67.538,51.956,67.592,57.221,68.334,58.89L68.334,58.89z
		 M55.056,37.171c0.032-0.717,5.031-0.261,5.024,0.436c-0.085,8.372,0.217,19.689,1.955,28.435c0.176,0.887-5.188,1.589-5.328,0.829
		c-0.612-3.324-1.176-7.723-1.463-11.774c-1.151,0.012-2.865,0.4-3.898,0.79c0.396,3.835,1.074,7.599,1.979,11.307
		c0.176,0.72-5.241,1.856-5.352,1.323c-2.418-11.582-3.581-23.816-3.451-35.474c0.009-0.845,5.469-0.47,5.432,0.403
		c-0.191,4.575,0.136,11.844,0.815,16.727c1.263-0.4,2.711-0.556,4.207-0.61C54.821,45.641,54.868,41.425,55.056,37.171
		L55.056,37.171z M88.964,10.822c-0.068-0.663-4.57-0.475-4.486,0.463c0.271,3.004,1.49,18.091,1.868,20.613
		c0.08,0.533,3.369,0.263,3.795-0.033c1.1-0.765,8.513-10.346,9.012-11.17c0.532,2.91,0.739,9.172,0.875,12.341
		c0.022,0.525,4.497,0.397,4.486-0.363c-0.094-5.886-1.19-18.246-3.055-23.753c-0.215-0.636-4.466,0.167-4.231,0.837
		c0.368,1.048,0.799,3.398,0.855,4.606c0.019,0.411-6.296,8.021-7.754,9.992C89.952,21.056,89.279,13.865,88.964,10.822
		L88.964,10.822z M38.91,29.29c0.267,0.692-4.599,2.368-4.978,1.633c-0.495-0.961-0.894-2.366-0.991-3.748
		c-0.582,2.004-3.121,3.475-6.146,3.405c-12.37-0.288-10.719-18.395,5.583-20.242c-0.375-2.622-5.72-3.9-9.125-0.027
		c-0.544,0.664-3.974-2.763-3.601-3.362c4.119-6.612,17.426-6.114,18.103,3.129C38.29,17.415,36.475,23.042,38.91,29.29L38.91,29.29
		z M32.346,15.887c-4.151-0.033-7.745,3.428-7.724,6.166c0.01,1.357,0.474,2.922,2.493,3.01
		C31.511,25.256,32.346,18.965,32.346,15.887L32.346,15.887z"/>
    </symbol>

    <symbol id="cross" viewBox="0 0 33.742 33.741">
        <path stroke="currentColor"
              style="fill:none;stroke-width:2.8347;stroke-linecap:round;stroke-linejoin:round;stroke-miterlimit:22.9256;"
              d="M1.418,1.417l30.907,30.906 M32.324,1.417L1.417,32.324"
        />
    </symbol>

    <symbol id="search" viewBox="0 0 35.088 34.486">
        <path stroke="currentColor"
              style="fill:none;stroke-width:3.5433;stroke-linecap:round;stroke-linejoin:round;stroke-miterlimit:22.9256;"
              d="M1.772,14.723c0-7.153,5.799-12.952,12.952-12.952c7.153,0,12.951,5.799,12.951,12.952c0,7.153-5.799,12.952-12.951,12.952
      C7.57,27.675,1.772,21.876,1.772,14.723L1.772,14.723z M24.512,23.91l8.805,8.805"
        />
    </symbol>

    <symbol id="drop-arrow" viewBox="0 0 10.279 9.187">
        <polygon stroke="currentColor" fill="currentColor"
                 style="fill-rule:evenodd;clip-rule:evenodd;stroke-width:2.126;stroke-linecap:round;stroke-linejoin:round;stroke-miterlimit:22.9256;"
                 points="5.139,8.124 7.178,4.594 9.216,1.063 5.139,1.063 1.063,1.063 3.101,4.594 5.139,8.124"
        />
    </symbol>
</svg>
