<?xml version="1.0" encoding="UTF-8"?><!DOCTYPE svg PUBLIC "-//W3C//DTD SVG 1.1//EN" "http://www.w3.org/Graphics/SVG/1.1/DTD/svg11.dtd"><svg xmlns="http://www.w3.org/2000/svg" xmlns:xlink="http://www.w3.org/1999/xlink"><symbol id="icon-doc" viewBox="0 0 514.346 513.9">
<g>
  <path style="fill:none;stroke:#000;stroke-width:28.3465;stroke-linecap:round;stroke-linejoin:round;stroke-miterlimit:22.9256;" d="M334.944,14.175H176.402H70.422c-30.937,0-56.249,25.312-56.249,56.249v373.054c0,30.937,25.312,56.249,56.249,56.249h373.501
    c30.937,0,56.249-25.312,56.249-56.249V176.474 M497.982,176.01H393.876c-30.937,0-56.249-25.312-56.249-56.249V14.173
     M337.627,14.175l161.782,161.552"/>
</g>
</symbol><symbol id="icon-drop-area" viewBox="0 0 30.9 30.9">
<g>
  <path style="fill-rule:evenodd;clip-rule:evenodd;fill:#ffd200;" d="M15.45,0C23.983,0,30.9,6.917,30.9,15.45
      c0,8.533-6.917,15.45-15.45,15.45C6.917,30.9,0,23.983,0,15.45C0,6.917,6.917,0,15.45,0L15.45,0z M18.406,16.769L16.368,20.3
      c-0.09,0.155-0.22,0.29-0.386,0.386c-0.507,0.293-1.156,0.12-1.449-0.386l-2.038-3.531v-0.004l-1.987-3.441
      c-0.124-0.174-0.197-0.387-0.197-0.617c0-0.587,0.476-1.063,1.063-1.063h4.077h4.076v0.005c0.179,0,0.361,0.045,0.527,0.141
      c0.507,0.291,0.681,0.938,0.39,1.445l-2.006,3.475C18.428,16.73,18.418,16.749,18.406,16.769L18.406,16.769z"/>
</g>
</symbol><symbol id="icon-drop-arrow" viewBox="0 0 10.279 9.187">
<symbol id="drop-arrow" viewBox="0 0 10.279 9.187">
  <polygon stroke="currentColor" style="fill-rule:evenodd;clip-rule:evenodd;stroke-width:2.126;stroke-linecap:round;stroke-linejoin:round;stroke-miterlimit:22.9256;" points="5.139,8.124 7.178,4.594 9.216,1.063 5.139,1.063 1.063,1.063 3.101,4.594 5.139,8.124"/>
</symbol>
</symbol><symbol id="icon-magnifier" viewBox="0 0 35.088 34.486">
<g>
  <path style="fill:none;stroke:#FFD200;stroke-width:3.5433;stroke-linecap:round;stroke-linejoin:round;stroke-miterlimit:22.9256;" d="M1.772,14.723c0-7.153,5.799-12.952,12.952-12.952c7.153,0,12.951,5.799,12.951,12.952c0,7.153-5.799,12.952-12.951,12.952
      C7.57,27.675,1.772,21.876,1.772,14.723L1.772,14.723z M24.512,23.91l8.805,8.805"/>
</g>
</symbol><symbol id="icon-star" viewBox="0 0 32.44 32.39">
<g>
  <path style="fill-rule:evenodd;clip-rule:evenodd;fill:#FFD200;" d="M7.534,20.714L5.821,31.213
    c-0.062,0.383,0.099,0.768,0.417,0.992c0.317,0.223,0.734,0.247,1.075,0.058l8.908-4.923l8.908,4.925
    c0.154,0.084,0.323,0.126,0.49,0.126c0.205,0,0.41-0.062,0.584-0.185c0.318-0.224,0.478-0.609,0.416-0.992l-1.713-10.498
    l7.245-7.426c0.265-0.272,0.357-0.67,0.237-1.03c-0.12-0.361-0.432-0.622-0.808-0.68l-9.973-1.523l-4.47-9.522
    c-0.334-0.711-1.5-0.711-1.834,0l-4.469,9.522l-9.973,1.523c-0.376,0.058-0.688,0.319-0.808,0.68
    c-0.12,0.361-0.03,0.759,0.235,1.03L7.534,20.714L7.534,20.714z"/>
</g>
</symbol><symbol id="icon-video" viewBox="0 0 40 40">
<g>
  <path style="fill-rule:evenodd;clip-rule:evenodd;fill:#fff;" d="M19.971,2.083c-3.103,0-6.166,0.814-8.926,2.407
    c-4.143,2.392-7.106,6.254-8.344,10.875c-1.238,4.621-0.603,9.447,1.789,13.59c2.392,4.143,6.254,7.106,10.875,8.344
    c4.621,1.238,9.447,0.603,13.59-1.789c4.143-2.392,7.106-6.254,8.345-10.875c1.238-4.621,0.603-9.447-1.789-13.59
    c-2.392-4.143-6.254-7.106-10.875-8.344C23.093,2.287,21.526,2.083,19.971,2.083L19.971,2.083z M20.033,40
    c-1.737,0-3.484-0.228-5.207-0.69c-5.158-1.382-9.469-4.69-12.139-9.314c-2.67-4.624-3.379-10.012-1.997-15.17
    c1.382-5.158,4.69-9.469,9.314-12.139l0.52,0.901l-0.52-0.901c4.625-2.67,10.012-3.379,15.17-1.997
    c5.158,1.382,9.469,4.69,12.139,9.314c2.67,4.625,3.379,10.012,1.997,15.17c-1.382,5.158-4.69,9.469-9.314,12.139
    C26.915,39.092,23.496,40,20.033,40L20.033,40z"/>
  <path style="fill-rule:evenodd;clip-rule:evenodd;fill:#fff;" d="M15.65,12.481c-0.014,0-0.03,0.004-0.049,0.015
    c-0.048,0.028-0.048,0.066-0.048,0.084v14.842c0,0.018,0,0.056,0.048,0.084c0.048,0.028,0.081,0.009,0.097,0l12.854-7.421
    c0.016-0.009,0.048-0.028,0.048-0.084c0-0.056-0.033-0.075-0.048-0.084l-12.854-7.421C15.688,12.49,15.672,12.481,15.65,12.481
    L15.65,12.481z M15.649,29.603c-0.374,0-0.748-0.098-1.089-0.295c-0.682-0.394-1.089-1.099-1.089-1.887V12.579
    c0-0.788,0.407-1.493,1.089-1.887c0.682-0.394,1.496-0.394,2.179,0l12.854,7.421c0.682,0.394,1.089,1.099,1.089,1.887
    c0,0.788-0.407,1.493-1.089,1.887l-12.854,7.421C16.397,29.505,16.023,29.603,15.649,29.603L15.649,29.603z"/>
</g>
</symbol></svg>